<svg xmlns="http://www.w3.org/2000/svg" width="44.624" height="44.624" viewBox="0 0 44.624 44.624"><defs><style>.a{fill:#6698cc;}</style></defs><g transform="translate(0)"><path class="a" d="M467,271h1.307v1.307H467Z" transform="translate(-426.298 -247.381)"/><path class="a" d="M269.928,35.769A19.568,19.568,0,0,0,256,30v1.307A18.411,18.411,0,0,1,274.39,49.7H275.7A19.569,19.569,0,0,0,269.928,35.769Z" transform="translate(-233.688 -27.385)"/><path class="a" d="M6.537,77.42v-.337A15.775,15.775,0,1,1,33.9,87.784l.96.887A17.082,17.082,0,1,0,5.233,76.743l-1.964,1.4L1.31,76.747A20.918,20.918,0,0,1,7.019,62.686l-.952-.9A22.224,22.224,0,0,0,0,77.083v.337l3.268,2.324Z" transform="translate(0 -54.771)"/><path class="a" d="M111.6,6.535a22.31,22.31,0,0,0-31.07-.468l.9.952A21,21,0,1,1,97.121,43.277l1.367-1.922L97.062,39.35a17.021,17.021,0,0,0,10.353-4.489l-.887-.96a15.725,15.725,0,0,1-10.7,4.186H94.559l2.324,3.268-2.324,3.268h1.267A22.312,22.312,0,0,0,111.6,6.535Z" transform="translate(-73.514)"/><path class="a" d="M177.768,343.738h-1.246v-1.992h-1.307v5.291h1.307v-1.992h1.246v1.992h1.307v-5.291h-1.307Z" transform="translate(-159.944 -311.961)"/><path class="a" d="M7.5,343.053h4.694v2.676H7.5v5.291h6v-1.307H8.807v-2.676H13.5v-5.291h-6Z" transform="translate(-6.846 -311.961)"/><path class="a" d="M96.051,345.729H92.664v-3.983H91.357v5.291h4.694v3.983h1.307v-9.274H96.051Z" transform="translate(-83.395 -311.961)"/><path class="a" d="M199.63,171.3a2.6,2.6,0,0,0-.363-1.327l5.835-5.835-.924-.924-5.835,5.835a2.607,2.607,0,0,0-2.654,0l-3.38-3.38-.924.924,3.38,3.38a2.614,2.614,0,1,0,4.866,1.327Zm-3.922,0a1.307,1.307,0,1,1,1.307,1.307A1.309,1.309,0,0,1,195.708,171.3Z" transform="translate(-174.704 -148.992)"/><path class="a" d="M407,248.5h1.307v1.307H407Z" transform="translate(-371.527 -226.842)"/><path class="a" d="M0,0H1.307V1.307H0Z" transform="translate(31.151 12.544) rotate(-45)"/><path class="a" d="M0,0H1.307V1.307H0Z" transform="translate(11.617 12.544) rotate(-45)"/><path class="a" d="M90,248.5h1.307v1.307H90Z" transform="translate(-82.156 -226.842)"/><path class="a" d="M248.5,407h1.307v1.307H248.5Z" transform="translate(-226.842 -371.527)"/><path class="a" d="M0,0H1.307V1.307H0Z" transform="translate(31.149 32.082) rotate(-45)"/><path class="a" d="M248.5,90h1.307v1.307H248.5Z" transform="translate(-226.842 -82.156)"/></g></svg>