<svg xmlns="http://www.w3.org/2000/svg" width="40.112" height="36.77" viewBox="0 0 40.112 36.77"><defs><style>.a{fill:#6698cc;}</style></defs><g transform="translate(-16 -56)"><path class="a" d="M54.775,184.022a.669.669,0,0,0-.669-.669H40.736a.669.669,0,0,0-.669.669V186.7H38.062V185.36a2.677,2.677,0,0,0-2.674-2.674h-.669v-1.337a4.017,4.017,0,0,0-3.343-3.954V176H30.039v1.394a4.017,4.017,0,0,0-3.343,3.954V201.4H25.36V181.348a4.017,4.017,0,0,0-3.343-3.954V176H20.68v1.394a4.017,4.017,0,0,0-3.343,3.954V201.4H16v1.337H56.112V201.4H54.775Zm-14.708,4.011v1.337H38.062v-1.337Zm-5.348,0h2.006v1.337H34.719Zm.669-4.011a1.339,1.339,0,0,1,1.337,1.337V186.7H34.719v-2.674Zm-4.68-5.348a2.677,2.677,0,0,1,2.674,2.674v3.343H28.034v-3.343A2.677,2.677,0,0,1,30.708,178.674Zm-2.674,7.354h5.348v6.685h1.337v-2.006h2.006v2.006h1.337v-2.006h2.006v2.006H41.4v-8.022H53.438V198.73H47.421v1.337h6.017V201.4H46.084v-6.685a.669.669,0,0,0-.669-.669H30.708a.669.669,0,0,0-.669.669V201.4H28.034ZM44.747,201.4H31.376v-6.017H44.747Zm-20.725-9.36H18.674v-6.017h5.348Zm-2.674-13.371a2.677,2.677,0,0,1,2.674,2.674v3.343H18.674v-3.343a2.677,2.677,0,0,1,2.674-2.674Zm-2.674,14.708h5.348V201.4H18.674Z" transform="translate(0 -109.972)"/><path class="a" d="M326.685,129.337v2.006h-.669a.669.669,0,0,0-.669.669v2.006h-4.68a.669.669,0,0,0-.669.669v3.343h1.337v-2.674h4.011v2.674h1.337V132.68H330.7v5.348h1.337v-6.017a.669.669,0,0,0-.669-.669H330.7V128H329.36v3.343h-1.337v-2.006Z" transform="translate(-278.596 -65.983)"/><path class="a" d="M416,200h1.337v1.337H416Z" transform="translate(-366.573 -131.966)"/><path class="a" d="M416,232h1.337v1.337H416Z" transform="translate(-366.573 -161.292)"/><path class="a" d="M352,232h1.337v1.337H352Z" transform="translate(-307.921 -161.292)"/><path class="a" d="M240,424h2.006v1.337H240Z" transform="translate(-205.281 -337.247)"/><path class="a" d="M280,424h2.006v1.337H280Z" transform="translate(-241.938 -337.247)"/><path class="a" d="M320,424h2.006v1.337H320Z" transform="translate(-278.596 -337.247)"/><path class="a" d="M344,296h2.006v1.337H344Z" transform="translate(-300.59 -219.944)"/><path class="a" d="M384,296h2.006v1.337H384Z" transform="translate(-337.247 -219.944)"/><path class="a" d="M424,296h2.006v1.337H424Z" transform="translate(-373.905 -219.944)"/><path class="a" d="M90.051,61.348H74.674A2.677,2.677,0,0,0,72,64.022v.669h1.337v-.669a1.339,1.339,0,0,1,1.337-1.337H90.051a2.006,2.006,0,0,0,0-4.011H83.365a.669.669,0,0,1,0-1.337H95.4V56H83.365a2.006,2.006,0,0,0,0,4.011h6.685a.669.669,0,1,1,0,1.337Z" transform="translate(-51.32)"/><path class="a" d="M368,56h1.337v1.337H368Z" transform="translate(-322.584)"/></g></svg>