<svg xmlns="http://www.w3.org/2000/svg" xmlns:xlink="http://www.w3.org/1999/xlink" width="1366" height="104" viewBox="0 0 1366 104"><defs><style>.a{fill:#fff;stroke:#707070;}.b{clip-path:url(#a);}.c{fill:#9e2341;}.d{fill:#b82446;}.e{fill:#e50046;}.f{fill:#6b1b39;}</style><clipPath id="a"><rect class="a" width="1366" height="104" transform="translate(43 243.147)"/></clipPath></defs><g class="b" transform="translate(-43 -243.147)"><g transform="translate(57.174 719.709)"><path class="c" d="M946.392-492.841c-95.5,2.164-174.25,23.7-249.979,42.864,59.706,3.274,121.544,10.551,183.523,23.46q28.452,5.928,56.89,13.483,8.049,2.145,16.089,4.434v-84.379c-2.19.029-4.351.088-6.523.138" transform="translate(431.07 16.49)"/><path class="d" d="M635.863-487.375q-17.67-5.533-35.687-10.209-11.626-3-23.381-5.615a707.62,707.62,0,0,0-84.647-13.661A652.368,652.368,0,0,0,312.016-510.1a608.579,608.579,0,0,0-72.273,17.647q-9.023,2.8-18.116,5.079c-2.41.606-4.823,1.171-7.238,1.724C321.949-484,446.716-454.131,546.951-423.7c19.3,5.861,37.692,11.738,54.873,17.443q6.9-1.3,14.169-2.608c17.427-3.128,36.406-6.255,56.75-9.208q14.395-2.089,29.683-4.047,6.312-.8,12.766-1.581c.739-.088,1.478-.178,2.22-.265q25.953-3.085,54.018-5.553a738.761,738.761,0,0,0-135.568-57.862" transform="translate(356.051 61.102)"/><path class="e" d="M1082.952-428.466q-28.408-7.579-56.89-13.483c-61.979-12.909-123.817-20.186-183.523-23.46-35.192-1.93-69.64-2.468-102.942-1.944-40.052.63-78.441,2.792-114.455,5.917q-28.018,2.427-54.018,5.553c-.742.087-1.481.177-2.22.265q-6.454.776-12.766,1.581-15.267,1.95-29.683,4.047c-20.343,2.951-39.323,6.08-56.75,9.208q-7.266,1.306-14.169,2.608,13.373,4.439,25.722,8.7c41.506,14.318,73.642,26.71,91.076,33.641h526.708v-28.2q-8.037-2.287-16.089-4.434" transform="translate(284.944 31.922)"/><path class="c" d="M766.2-410.548q-12.332-4.256-25.722-8.7c-17.181-5.705-35.571-11.582-54.873-17.443C585.37-467.13,460.6-497,353.042-498.651c-3.1-.047-6.19-.082-9.259-.082A1330.549,1330.549,0,0,0,208.372-491.8c-33.558,3.435-64.376,7.881-92,12.7-.927.164-1.849.325-2.768.488-59.381,10.5-103.614,22.65-127.779,30.052v21.939a519.5,519.5,0,0,1,128.806-25.366c.868-.059,1.73-.124,2.6-.18,11.4-.739,23.182-1.142,35.324-1.142,47.738,0,95.031,6.892,141.5,16.609,91.876,19.211,180.52,49.484,262.949,59.789H857.277c-17.434-6.931-49.57-19.323-91.076-33.641" transform="translate(91 41.111)"/><path class="f" d="M294.062-453.849c-46.474-9.717-93.767-16.609-141.5-16.609-12.141,0-23.92.4-35.324,1.142-.871.056-1.734.121-2.6.18A519.5,519.5,0,0,0-14.173-443.77v49.713H557.012c-82.429-10.3-171.072-40.581-262.949-59.791" transform="translate(0 30.153)"/></g></g></svg>