<svg xmlns="http://www.w3.org/2000/svg" xmlns:xlink="http://www.w3.org/1999/xlink" width="237.566" height="81.822" viewBox="0 0 237.566 81.822"><defs><style>.a{fill:#0361aa;}.b{clip-path:url(#a);}.c{fill:url(#b);}.d{fill:#fff;}</style><clipPath id="a"><path d="M139.537,208.236c67.719-9.593,109.038-1.593,118.586,9.336,0,0-13.273-47.475-118.981-28.113-67.716,9.59-109.038,1.593-118.585-9.336,0,0,13.276,47.474,118.98,28.113" transform="translate(-20.557 -180.123)"/></clipPath><linearGradient id="b" x1="0.488" y1="0.275" x2="0.49" y2="0.275" gradientUnits="objectBoundingBox"><stop offset="0" stop-color="#2bace2"/><stop offset="0.157" stop-color="#1dbff0"/><stop offset="0.495" stop-color="#a0ddf9"/><stop offset="1" stop-color="#2bace2"/></linearGradient></defs><g transform="translate(-20.557 -30.272)"><path class="a" d="M326.946,30.272c-14.218,0-24.147,10.466-24.147,25.45,0,7.564,2.319,15.128,7.828,20.292a27.125,27.125,0,0,0,18.857,7.065c7.847,0,14.6-2.618,17.279-4.575,1.393-1.017,3.862-3.453,3.291-6.665-.483-2.725-2.856-5.1-3.635-5.882l-.582-.6-.393.467a15.81,15.81,0,0,1-12.7,6.019c-8.691,0-14.309-5.023-14.309-12.8a.6.6,0,0,1,.6-.609h31.748a.63.63,0,0,0,.625-.611c.021-.526.032-1.046.032-1.564,0-7.543-2.319-14-6.707-18.664a24.021,24.021,0,0,0-17.787-7.331M336.531,49.4H319.358a.6.6,0,0,1-.459-.222.613.613,0,0,1-.128-.5c.948-5.3,4.292-8.336,9.176-8.336,4.783,0,8.21,3.115,9.168,8.332a.623.623,0,0,1-.125.5.582.582,0,0,1-.459.222" transform="translate(-198.666)"/><path class="a" d="M515.669,41.09c0,2.661-1.746,5.381-3.093,7.575a25.7,25.7,0,0,0-10.233-4.727c-2.981-.662-9.886-1.271-10.3,2.717-.171,1.652.974,3.008,3.248,3.937,3.573,1.452,7.9,3.1,11.506,4.508a15.514,15.514,0,0,1,8.1,6.662c1.764,3.149,1.852,7.284,1.046,10.727-1.774,7.561-8.923,11.72-16.235,12.659a33.081,33.081,0,0,1-16.569-1.86c-2.263-.953-5.04-2.354-5.162-5.156-.117-2.643,1.441-6.054,2.64-8,2.666,2,7.311,3.478,10.852,4.105,3.6.64,8.6.867,10.345-1.687,1.439-2.1-.04-4.078-2.789-5.4-3.382-1.625-8.667-3.587-10.972-4.687-3.291-1.572-5.723-2.581-7.813-5.656A14.1,14.1,0,0,1,478.3,46.44c1.4-7.567,9.264-11.431,16.279-12.221a36.046,36.046,0,0,1,13.1.961c2.921.774,7.731,2.27,7.986,5.911,0,1.022-.141-1.977,0,0" transform="translate(-321.963 -2.624)"/><path class="a" d="M651.992,41.09c0,2.661-1.741,5.381-3.089,7.575a25.7,25.7,0,0,0-10.238-4.727c-2.979-.662-9.886-1.271-10.3,2.717-.174,1.652.969,3.008,3.246,3.937,3.576,1.452,7.9,3.1,11.506,4.508a15.489,15.489,0,0,1,8.1,6.662c1.767,3.149,1.856,7.284,1.046,10.727-1.772,7.561-8.923,11.72-16.233,12.659a33.094,33.094,0,0,1-16.572-1.86c-2.261-.953-5.041-2.354-5.164-5.156-.115-2.643,1.444-6.054,2.643-8,2.669,2,7.313,3.478,10.855,4.105,3.6.64,8.6.867,10.343-1.687,1.438-2.1-.04-4.078-2.789-5.4-3.382-1.625-8.667-3.587-10.973-4.687-3.294-1.572-5.725-2.581-7.815-5.656a14.094,14.094,0,0,1-1.932-10.366c1.4-7.567,9.264-11.431,16.284-12.221a36.036,36.036,0,0,1,13.1.961c2.923.774,7.733,2.27,7.986,5.911,0,1.022-.139-1.977,0,0" transform="translate(-417.919 -2.624)"/><path class="a" d="M81.435,32.667V75.054a9.666,9.666,0,0,0,.721,4.041,5.99,5.99,0,0,0,1.932,2.4,7.576,7.576,0,0,0,3.032,1.249,22.943,22.943,0,0,0,4.27.361c1.263,0,1.879-.035,3.035-.107.648-.04,1.083-.091,1.374-.131V40.023a7.734,7.734,0,0,0-.862-3.913,6.137,6.137,0,0,0-2.264-2.263A9.816,9.816,0,0,0,89.4,32.715a26.091,26.091,0,0,0-6.937-.152c-.461.043-.79.075-1.028.1" transform="translate(-42.851 -1.501)"/><path class="a" d="M183.739,43.185,167.711,82.874H153.786L134.012,32.813h7.046a14.245,14.245,0,0,1,4.916.787,11,11,0,0,1,3.689,2.3c2.125,2,2.886,4.868,3.475,6.5l7.521,21.939,10.919-31.519h5.795c8.092,0,7.588,6.814,6.365,10.372" transform="translate(-79.859 -1.789)"/><g transform="translate(20.557 74.645)"><g transform="translate(0)"><g class="b"><path class="c" d="M20.558,113.224l237.566,9.787V190.3l-237.566-9.79Z" transform="translate(-20.558 -133.034)"/></g></g></g><path class="a" d="M56.247,172.037a1.244,1.244,0,0,1,.569.115.82.82,0,0,1,.358.331,1.369,1.369,0,0,1,.19.515,3.747,3.747,0,0,1,.053.678v1.054H53.351c-.016-.166-.03-.323-.043-.475s-.013-.323-.013-.515a3.142,3.142,0,0,1,.067-.709,1.3,1.3,0,0,1,.2-.47.739.739,0,0,1,.317-.256,1.136,1.136,0,0,1,.438-.08,1.08,1.08,0,0,1,.376.061,1.2,1.2,0,0,1,.278.149.934.934,0,0,1,.189.192,1.187,1.187,0,0,1,.11.189,1.512,1.512,0,0,1,.08-.235.879.879,0,0,1,.454-.462,1.049,1.049,0,0,1,.449-.084m-1.916.718a.535.535,0,0,0-.307.078.488.488,0,0,0-.184.211,1.038,1.038,0,0,0-.088.318,3.285,3.285,0,0,0-.024.405c0,.1,0,.184.006.256a1.237,1.237,0,0,0,.018.176h1.343v-.579a.945.945,0,0,0-.2-.624.689.689,0,0,0-.563-.241m2.643,1.059a4.077,4.077,0,0,0-.027-.5,1.169,1.169,0,0,0-.1-.389.611.611,0,0,0-.219-.259.727.727,0,0,0-.39-.09.6.6,0,0,0-.568.314,1.015,1.015,0,0,0-.112.333,2.632,2.632,0,0,0-.03.39v.585h1.447v-.384Z" transform="translate(-23.044 -99.786)"/><path class="a" d="M57.478,157.647l-1.094.405V159.7l1.094.4v.545l-4.041-1.482a.73.73,0,0,1-.035-.128.931.931,0,0,1-.019-.168.431.431,0,0,1,.051-.211.368.368,0,0,1,.2-.152l3.846-1.41v.556ZM54,158.88l1.945.689V158.2Z" transform="translate(-23.106 -89.266)"/><path class="a" d="M57.047,151.585c.085,0,.171,0,.261.006s.182.011.278.018a1.386,1.386,0,0,1,.349.083.924.924,0,0,1,.31.181.888.888,0,0,1,.224.3.932.932,0,0,1,.085.419.321.321,0,0,1-.085.261.341.341,0,0,1-.213.061h-.075a.6.6,0,0,1-.072,0,.846.846,0,0,0-.176-.617.831.831,0,0,0-.593-.176H53.388a.257.257,0,0,1-.016-.072c0-.03-.005-.054-.005-.072a.715.715,0,0,1,.013-.123.345.345,0,0,1,.053-.126.441.441,0,0,1,.115-.1.434.434,0,0,1,.19-.038h3.31Z" transform="translate(-23.094 -85.39)"/><path class="a" d="M55.265,135.308a3.312,3.312,0,0,1,.83.1,2,2,0,0,1,.684.315,1.6,1.6,0,0,1,.467.553,1.739,1.739,0,0,1,.171.814,1.651,1.651,0,0,1-.176.8,1.512,1.512,0,0,1-.472.54,1.989,1.989,0,0,1-.686.3,3.406,3.406,0,0,1-.814.1,3.049,3.049,0,0,1-.8-.1,1.881,1.881,0,0,1-.673-.326,1.607,1.607,0,0,1-.459-.555,1.772,1.772,0,0,1-.168-.808,1.679,1.679,0,0,1,.166-.782,1.5,1.5,0,0,1,.449-.537,1.945,1.945,0,0,1,.667-.31,3.467,3.467,0,0,1,.817-.1m.006.555a2.93,2.93,0,0,0-.622.062,1.648,1.648,0,0,0-.515.2,1.007,1.007,0,0,0-.35.368,1.156,1.156,0,0,0-.128.558,1.221,1.221,0,0,0,.128.579,1.055,1.055,0,0,0,.35.374,1.553,1.553,0,0,0,.515.205,3.1,3.1,0,0,0,.622.059,3.441,3.441,0,0,0,.633-.059,1.677,1.677,0,0,0,.536-.2,1.04,1.04,0,0,0,.371-.368,1.075,1.075,0,0,0,.136-.569,1.106,1.106,0,0,0-.136-.569,1.082,1.082,0,0,0-.371-.373,1.757,1.757,0,0,0-.536-.2,3.2,3.2,0,0,0-.633-.06" transform="translate(-22.954 -73.933)"/><path class="a" d="M56.667,112.907H53.394a.136.136,0,0,0-.005-.043.4.4,0,0,0,0-.048c0-.016,0-.038,0-.056a.456.456,0,0,1,.016-.115.235.235,0,0,1,.053-.112.309.309,0,0,1,.115-.089.532.532,0,0,1,.2-.032h3.716v.494l-3.165,2.072h3.165v.5H53.416c-.008-.027-.013-.062-.021-.1a1.184,1.184,0,0,1-.007-.134.415.415,0,0,1,.045-.211.462.462,0,0,1,.155-.147Z" transform="translate(-23.106 -57.818)"/><path class="a" d="M55.265,96.09a3.34,3.34,0,0,1,.83.1,2.066,2.066,0,0,1,.684.315,1.582,1.582,0,0,1,.467.553,1.748,1.748,0,0,1,.171.814,1.65,1.65,0,0,1-.176.8,1.555,1.555,0,0,1-.472.542,2.028,2.028,0,0,1-.686.3,3.406,3.406,0,0,1-.814.1,3.025,3.025,0,0,1-.8-.1,1.9,1.9,0,0,1-.673-.32,1.669,1.669,0,0,1-.459-.558,1.772,1.772,0,0,1-.168-.808,1.7,1.7,0,0,1,.166-.784,1.5,1.5,0,0,1,.449-.537,1.934,1.934,0,0,1,.667-.31,3.359,3.359,0,0,1,.817-.1m.006.555a2.891,2.891,0,0,0-.622.062,1.647,1.647,0,0,0-.515.194.991.991,0,0,0-.35.368,1.16,1.16,0,0,0-.128.558,1.212,1.212,0,0,0,.128.579,1.072,1.072,0,0,0,.35.374,1.554,1.554,0,0,0,.515.205,3.121,3.121,0,0,0,.622.059,3.269,3.269,0,0,0,.633-.059,1.735,1.735,0,0,0,.536-.2,1.041,1.041,0,0,0,.371-.368,1.073,1.073,0,0,0,.136-.568,1.106,1.106,0,0,0-.136-.569,1.039,1.039,0,0,0-.371-.374,1.68,1.68,0,0,0-.536-.2,3.243,3.243,0,0,0-.633-.062" transform="translate(-22.954 -46.328)"/><path class="a" d="M54.448,82.626a1.369,1.369,0,0,1,.456.072,1.2,1.2,0,0,1,.347.2,1.191,1.191,0,0,1,.243.285,1.153,1.153,0,0,1,.139.344L57.4,82.407a.39.39,0,0,1,.045.139.918.918,0,0,1,.011.147.485.485,0,0,1-.238.432l-1.486.95v.544H57.4v.531H53.333c-.019-.147-.037-.3-.046-.472s-.011-.331-.011-.486a1.961,1.961,0,0,1,.286-1.2,1.041,1.041,0,0,1,.885-.368m.027.556a.909.909,0,0,0-.376.069.561.561,0,0,0-.229.2.884.884,0,0,0-.115.317,2.757,2.757,0,0,0-.029.411c0,.1,0,.184.005.259s.011.139.019.2v-.013h1.537v-.44a1.758,1.758,0,0,0-.043-.406.892.892,0,0,0-.144-.317.656.656,0,0,0-.251-.208.817.817,0,0,0-.374-.075" transform="translate(-23.031 -36.697)"/><path class="a" d="M53.367,68.758a.346.346,0,0,1,.062-.206.408.408,0,0,1,.163-.123l2.466-1.139-2.45-1.132a.357.357,0,0,1-.192-.165.492.492,0,0,1-.048-.2.885.885,0,0,1,.013-.149.964.964,0,0,1,.024-.115l4.06-.286v.494l-3.208.222,2.279,1.084v.515L54.36,68.595l3.1.227v.5l-4.06-.3c-.008-.029-.016-.064-.024-.11a1.4,1.4,0,0,1-.014-.155" transform="translate(-23.094 -24.617)"/><path class="a" d="M57.478,50.521l-1.094.408v1.647l1.094.4v.545l-4.041-1.481a.8.8,0,0,1-.035-.131.928.928,0,0,1-.019-.168.434.434,0,0,1,.051-.211.364.364,0,0,1,.2-.15l3.846-1.412v.555ZM54,51.754l1.945.689V51.071Z" transform="translate(-23.106 -13.862)"/><path class="a" d="M56.561,41.078a1.945,1.945,0,0,0,.277-.467,1.406,1.406,0,0,0,.118-.582,1.116,1.116,0,0,0-.059-.4.713.713,0,0,0-.16-.256.562.562,0,0,0-.224-.136.844.844,0,0,0-.259-.043.8.8,0,0,0-.3.051.636.636,0,0,0-.224.155.956.956,0,0,0-.16.253c-.043.1-.088.219-.128.347-.045.15-.1.293-.152.435a1.643,1.643,0,0,1-.213.368.941.941,0,0,1-.318.259,1.034,1.034,0,0,1-.469.1,1.067,1.067,0,0,1-.484-.1.98.98,0,0,1-.352-.269,1.221,1.221,0,0,1-.211-.411,1.713,1.713,0,0,1-.075-.518,2.293,2.293,0,0,1,.056-.486,1.617,1.617,0,0,1,.168-.443.943.943,0,0,1,.131-.166.235.235,0,0,1,.16-.067.309.309,0,0,1,.16.058,1.057,1.057,0,0,1,.168.144c-.029.032-.064.078-.112.134a1.332,1.332,0,0,0-.123.208,2.292,2.292,0,0,0-.1.28,1.337,1.337,0,0,0-.043.339,1.068,1.068,0,0,0,.051.358.668.668,0,0,0,.136.229.47.47,0,0,0,.192.129.687.687,0,0,0,.227.04.542.542,0,0,0,.264-.058.6.6,0,0,0,.19-.176,1.364,1.364,0,0,0,.152-.28c.043-.11.088-.235.133-.379a3.047,3.047,0,0,1,.16-.4,1.4,1.4,0,0,1,.235-.339,1.037,1.037,0,0,1,.793-.323,1.356,1.356,0,0,1,.539.1,1.086,1.086,0,0,1,.39.28,1.194,1.194,0,0,1,.24.435,1.844,1.844,0,0,1,.077.558,2.609,2.609,0,0,1-.072.627,1.4,1.4,0,0,1-.195.457.293.293,0,0,1-.227.152.359.359,0,0,1-.171-.056c-.061-.049-.128-.092-.187-.139" transform="translate(-22.954 -5.908)"/><g transform="translate(20.557 74.645)"><g transform="translate(0)"><g class="b"><path class="d" d="M120.029,196.512c-23.064,3.916-47.338,6.928-70.922,4.262-19.767-2.234-44.525-9.256-55.762-28.131,6.881,9.339,17.426,14.829,28.129,18.227,12.609,4.006,25.847,5.435,38.872,5.757a274.643,274.643,0,0,0,41.768-2.432c13.876-1.783,27.553-4.556,41.506-5.944,19.318-1.919,39.248-2.2,58.6,1.6,16.505,3.24,35.64,9.852,44.906,25.42-12.624-17.141-36.528-21.779-55.929-23.4-23.877-1.989-47.888.539-71.17,4.641-6.648,1.129,6.956-1.226,0,0" transform="translate(-1.404 -174.858)"/></g></g></g></g></svg>