<svg xmlns="http://www.w3.org/2000/svg" width="39.511" height="52.953" viewBox="0 0 39.511 52.953"><defs><style>.a{fill:#fff;}</style></defs><path class="a" d="M101.542,91.951a1.034,1.034,0,1,0-1.034-1.034A1.034,1.034,0,0,0,101.542,91.951Zm0,0" transform="translate(-90.165 -80.587)"/><path class="a" d="M39.383,18.765a3.179,3.179,0,0,0-.7-4l-3.5-2.974a1.111,1.111,0,0,1-.371-.652L34.018,6.65a3.14,3.14,0,0,0-3.089-2.614H26.356a1.05,1.05,0,0,1-.674-.246L22.18.752,22.171.745a3.115,3.115,0,0,0-4.041,0l-.009.008L14.626,3.783a1.054,1.054,0,0,1-.681.252H9.372A3.14,3.14,0,0,0,6.283,6.648l-.795,4.5a1.1,1.1,0,0,1-.369.65l-3.5,2.975a3.178,3.178,0,0,0-.7,3.994L3.2,22.774a1.116,1.116,0,0,1,.13.743L2.54,28.075a3.162,3.162,0,0,0,2.013,3.517l4.3,1.584a1.041,1.041,0,0,1,.24.126L1.124,47.27A1.035,1.035,0,0,0,2.29,48.781l4.652-1.246,1.246,4.652a1.034,1.034,0,0,0,1.9.245l8.22-14.413,1.482-.546a1.05,1.05,0,0,1,.723,0l1.594.587,8.82,14.4a1.035,1.035,0,0,0,1.881-.273l1.247-4.652,4.652,1.246a1.035,1.035,0,0,0,1.15-1.539L31.286,33.254a1,1,0,0,1,.166-.078l4.3-1.583a3.159,3.159,0,0,0,2.014-3.518l-.794-4.558a1.117,1.117,0,0,1,.13-.743ZM9.536,49.222,8.673,46a1.034,1.034,0,0,0-1.267-.731l-3.257.873L10.34,35.284,11.7,37.66a3.119,3.119,0,0,0,3.6,1.458Zm27.2-3.109-3.148-.844A1.034,1.034,0,0,0,32.323,46l-.891,3.325L25.214,39.174a3.114,3.114,0,0,0,3.39-1.513l1.425-2.5ZM35.3,21.749a3.189,3.189,0,0,0-.371,2.123l.794,4.558a1.093,1.093,0,0,1-.69,1.221l-4.3,1.583A3.142,3.142,0,0,0,29.177,32.5a1,1,0,0,0-.108.176l-2.261,3.963a1.057,1.057,0,0,1-1.284.478l-4.3-1.584a3.122,3.122,0,0,0-2.152,0l-4.3,1.583a1.057,1.057,0,0,1-1.285-.478l-2.127-3.729a1.036,1.036,0,0,0-.308-.515,3.142,3.142,0,0,0-1.494-1.157l-4.3-1.584a1.1,1.1,0,0,1-.69-1.221l.794-4.557A3.187,3.187,0,0,0,5,21.749L2.714,17.74a1.108,1.108,0,0,1,.24-1.393l3.5-2.975A3.173,3.173,0,0,0,7.526,11.5l.794-4.5a1.076,1.076,0,0,1,1.052-.9h4.573a3.129,3.129,0,0,0,2.028-.751l3.5-3.033a1.053,1.053,0,0,1,1.359,0l3.505,3.04a3.124,3.124,0,0,0,2.021.745h4.572a1.076,1.076,0,0,1,1.052.9l.793,4.5a3.18,3.18,0,0,0,1.069,1.869l3.5,2.974a1.109,1.109,0,0,1,.241,1.394Zm0,0" transform="translate(-0.499 -0.001)"/><path class="a" d="M73.953,59.746a13.368,13.368,0,0,0-5.144,1.02,1.034,1.034,0,0,0,.792,1.911,11.372,11.372,0,1,1-5.579,4.96,1.034,1.034,0,1,0-1.8-1.011,13.447,13.447,0,1,0,11.736-6.879Zm0,0" transform="translate(-54.302 -53.567)"/><path class="a" d="M126.317,128.439l-.605,3.525a1.034,1.034,0,0,0,1.5,1.09l3.167-1.664,3.167,1.664a1.034,1.034,0,0,0,1.5-1.09l-.605-3.525,2.561-2.5a1.034,1.034,0,0,0-.573-1.764l-3.54-.514-1.582-3.207a1.034,1.034,0,0,0-1.855,0l-1.582,3.207-3.54.514a1.034,1.034,0,0,0-.573,1.764Zm2.387-2.807a1.035,1.035,0,0,0,.779-.566l.9-1.816.9,1.816a1.033,1.033,0,0,0,.779.566l2,.291-1.45,1.414a1.035,1.035,0,0,0-.3.915l.343,2-1.793-.942a1.034,1.034,0,0,0-.962,0l-1.793.942.343-2a1.034,1.034,0,0,0-.3-.915l-1.45-1.414Zm0,0" transform="translate(-110.728 -107.481)"/></svg>