<svg xmlns="http://www.w3.org/2000/svg" width="54.779" height="52.953" viewBox="0 0 54.779 52.953"><defs><style>.a{fill:#fff;}</style></defs><path class="a" d="M50.214,0H11.869A4.57,4.57,0,0,0,7.3,4.565V40.171H.913A.913.913,0,0,0,0,41.084V42.91a4.57,4.57,0,0,0,4.565,4.565H32.889V52.04a.913.913,0,0,0,1.461.73l3.1-2.328,3.1,2.328a.907.907,0,0,0,.548.183.9.9,0,0,0,.913-.913V47.475h.891a4.57,4.57,0,0,0,4.565-4.565V7.3h6.391a.913.913,0,0,0,.913-.913V4.565A4.57,4.57,0,0,0,50.214,0ZM32.889,45.649H4.565A2.739,2.739,0,0,1,1.826,42.91V42H32.889Zm7.3,4.565L38,48.571a.912.912,0,0,0-1.1,0l-2.191,1.643v-10.2a2.7,2.7,0,0,0,.53-.01,2.781,2.781,0,0,0,4.4,0,2.712,2.712,0,0,0,.548.01Zm1.174-14.626a.913.913,0,0,0-.518,1.253.949.949,0,0,1-1.26,1.267.913.913,0,0,0-1.254.518.946.946,0,0,1-1.784,0,.912.912,0,0,0-1.254-.518.949.949,0,0,1-1.26-1.267.914.914,0,0,0-.518-1.253.949.949,0,0,1,0-1.789.913.913,0,0,0,.518-1.252.949.949,0,0,1,1.26-1.268.912.912,0,0,0,1.254-.518.946.946,0,0,1,1.784,0,.913.913,0,0,0,1.254.518.949.949,0,0,1,1.26,1.267.913.913,0,0,0,.518,1.253.95.95,0,0,1,0,1.789ZM46.491,1.94c-.052.073-.1.151-.145.227a4.57,4.57,0,0,0-.263.484c-.041.091-.079.176-.115.265a4.633,4.633,0,0,0-.17.548c-.021.085-.048.167-.064.254a4.55,4.55,0,0,0-.086.847V42.91a2.693,2.693,0,0,1-3.63,2.571V39.13a2.738,2.738,0,0,0,.731-2.237,2.789,2.789,0,0,0,0-4.4,2.784,2.784,0,0,0-3.1-3.113,2.781,2.781,0,0,0-4.4,0,2.785,2.785,0,0,0-3.1,3.113,2.788,2.788,0,0,0,0,4.4,2.745,2.745,0,0,0,.75,2.263v1.014H9.13V4.565a2.739,2.739,0,0,1,2.739-2.739H46.562c-.025.036-.045.077-.07.114Zm6.461,3.538H47.475V4.565a2.739,2.739,0,1,1,5.478,0Zm0,0"/><path class="a" d="M264,64h3.652v1.826H264Zm0,0" transform="translate(-233.872 -56.696)"/><path class="a" d="M184,64h7.3v1.826H184Zm0,0" transform="translate(-163.002 -56.696)"/><path class="a" d="M160,104h18.26v1.826H160Zm0,0" transform="translate(-141.74 -92.131)"/><path class="a" d="M120,152h4.565v1.826H120Zm0,0" transform="translate(-106.305 -134.653)"/><path class="a" d="M120,192h10.043v1.826H120Zm0,0" transform="translate(-106.305 -170.089)"/><path class="a" d="M176,152h21v1.826H176Zm0,0" transform="translate(-155.915 -134.653)"/><path class="a" d="M224,192h15.521v1.826H224Zm0,0" transform="translate(-198.437 -170.089)"/><path class="a" d="M120,232h18.26v1.826H120Zm0,0" transform="translate(-106.305 -205.524)"/><path class="a" d="M120,272h15.521v1.826H120Zm0,0" transform="translate(-106.305 -240.959)"/></svg>