<svg xmlns="http://www.w3.org/2000/svg" width="42.429" height="42.293" viewBox="0 0 42.429 42.293"><defs><style>.a{fill:#f0f0f0;}</style></defs><g transform="translate(29.876 29.827)"><path class="a" d="M368.184,360.8a.623.623,0,0,0-.679.135l-6.806,6.806a.623.623,0,0,0,.44,1.063h6.806a.623.623,0,0,0,.623-.623v-6.806A.623.623,0,0,0,368.184,360.8Zm-5.541,6.758,4.68-4.68v4.68Z" transform="translate(-360.517 -360.749)"/></g><g transform="translate(0 0)"><path class="a" d="M42.044,20.712a.623.623,0,0,0-.679.135L39.5,22.712V10.031a.623.623,0,0,0-.623-.623H34.093L35.83,7.671h0L37.5,6a1.9,1.9,0,0,0,0-2.685L35.569,1.376a1.9,1.9,0,0,0-2.685,0L31.209,3.05,29.186,5.074,24.851,9.408H5.521V3.247A.623.623,0,0,0,4.9,2.624,4.9,4.9,0,0,0,0,7.523v26.45a.624.624,0,0,0,.015.134,4.717,4.717,0,0,0,4.7,4.359h19.03L20.163,42.05a.623.623,0,0,0,.44,1.063h21.2a.623.623,0,0,0,.623-.623v-21.2A.623.623,0,0,0,42.044,20.712ZM33.764,2.257a.654.654,0,0,1,.924,0l1.935,1.935a.654.654,0,0,1,0,.924L35.39,6.35,32.53,3.491ZM31.649,4.372l2.859,2.859L33.366,8.374,30.507,5.514Zm9.534,23.914H40.034a.623.623,0,0,0,0,1.246h1.149v1.877H40.034a.623.623,0,0,0,0,1.246h1.149V34.53H40.034a.623.623,0,0,0,0,1.246h1.149v1.877H40.034a.623.623,0,1,0,0,1.246h1.149v2.97H22.107l6.29-6.29a.623.623,0,0,0-.881-.881L24.993,37.22H4.718a3.452,3.452,0,0,1-3.469-3.36q.005-.178.028-.352v0q.01-.083.025-.164l0-.019q.013-.073.029-.145l.009-.04q.014-.061.031-.122l.019-.065c.009-.032.019-.063.029-.094s.021-.062.032-.093.015-.043.023-.065c.015-.041.031-.081.048-.121l.014-.035c.021-.05.043-.1.067-.147l0-.006A3.666,3.666,0,0,1,4.155,30.4l.009,0c.052-.011.1-.02.156-.028l.026,0c.047-.007.1-.013.143-.018l.04,0c.046,0,.093-.008.139-.011l.044,0q.091,0,.184,0a.623.623,0,0,0,.623-.623V25.182a.623.623,0,0,0-1.246,0v3.932a4.864,4.864,0,0,0-2.8,1.354c-.081.079-.158.161-.232.245V7.523a3.659,3.659,0,0,1,3.03-3.6V22.691h0a.623.623,0,1,0,1.246,0h0V10.654H23.606L20.163,14.1a.623.623,0,0,0,.881.881l4.506-4.506h0l4.076-4.076,2.859,2.859-.335.335h0L19.592,22.148l-2.859-2.859,2.475-2.475a.623.623,0,0,0-.881-.881l-2.916,2.915a.625.625,0,0,0-.044.049l-.013.018-.025.036-.013.022c-.007.012-.014.023-.02.035l-.011.024c-.006.012-.011.025-.015.037l-.005.013-1.213,3.437-.827,2.343a.63.63,0,0,0-.025.095H11.129a.623.623,0,0,0,0,1.246H28.375a.623.623,0,0,0,0-1.246H16l3.8-1.341.009,0,.044-.018.017-.008.044-.024.014-.008c.015-.01.03-.02.044-.031l.011-.008a.625.625,0,0,0,.05-.045L32.847,10.654h5.408v13.3l-8.908,8.908a.623.623,0,0,0,0,.881.636.636,0,0,0,.047.043.622.622,0,0,0,.833-.043h0L41.183,22.791ZM18.453,22.77l-1.784.63-1.189-1.189.63-1.784Z" transform="translate(0 -0.82)"/></g></svg>