<svg xmlns="http://www.w3.org/2000/svg" width="46.667" height="48.377" viewBox="0 0 46.667 48.377"><defs><style>.a{fill:#6698cc;}</style></defs><path class="a" d="M7519.293,458.725a8.522,8.522,0,0,1-5-3.093c-.608-.664-1.27-1.278-1.907-1.915q-4.616-4.617-9.234-9.235a6.5,6.5,0,0,1-.021-9.652c1.3-1.3,2.6-2.6,3.857-3.868l6.926,6.919c-.649.632-1.345,1.306-2.036,1.986-.521.513-1.045,1.025-1.55,1.554a.9.9,0,0,0-.1,1.272c1.041,1.07,2.119,2.105,3.226,3.2.143-.407.265-.776.4-1.139a6.376,6.376,0,0,1,5.075-4.278c1.878-.356,3.761-.685,5.641-1.028.146-.027.288-.071.614-.152a2.88,2.88,0,0,0-.494-.633,9.5,9.5,0,0,1-4.051-5.684.751.751,0,0,0-.394-.447,3.738,3.738,0,0,1-2.639-3.77c0-2.083-.009-4.166,0-6.249a12.073,12.073,0,0,1,24.089-1.239c.175,2.353.082,4.725.1,7.088.012,1.652,0,3.3,0,4.954a2.791,2.791,0,0,1-3.07,3.077,2.659,2.659,0,0,0-2.557,1.049,8.828,8.828,0,0,1-1.511,1.245,3.564,3.564,0,0,0-.447.626l3.226.6c1.161.217,2.333.384,3.479.661a6.136,6.136,0,0,1,4.54,3.983c.795,2.142,1.468,4.328,2.193,6.5a.945.945,0,0,1,0,.222h-19.717l-.061.114,1.45,1.216c-1.94,1.739-3.707,3.362-5.52,4.932a6.613,6.613,0,0,1-2.936,1.188ZM7522.3,445.8c1.1,1.107,2.169,2.16,3.212,3.237a1.179,1.179,0,0,0,.932.389q9.007-.017,18.012-.008h.683c-.465-1.4-.875-2.72-1.342-4.02a4.566,4.566,0,0,0-3.678-3.106c-1.51-.284-3.057-.431-4.527-.85a2.715,2.715,0,0,0-3.237,1.022,34.878,34.878,0,0,1-2.65,2.684c-.173-.163-.311-.288-.443-.419-1.1-1.1-2.194-2.211-3.314-3.292a.9.9,0,0,0-.674-.226c-2.032.343-4.062.7-6.085,1.1a4.561,4.561,0,0,0-3.588,3.063c-.2.543-.36,1.1-.561,1.648a.552.552,0,0,0,.158.689c.523.484,1.013,1,1.519,1.506.668.666,1.06.672,1.774.028Zm7.381-25.615a13.426,13.426,0,0,0,4.148,3.226,11.889,11.889,0,0,0,5.167.915v1.033l.813.307a31.7,31.7,0,0,0-.037-4.689,9.657,9.657,0,0,0-7.137-8.283,9.783,9.783,0,0,0-10.508,2.9c-2.724,2.856-2.86,6.412-2.594,10.1l.85-.333.051-1.061A10.735,10.735,0,0,0,7529.683,420.182Zm-7.426,5.97c0,1.669-.063,3.282.013,4.889a7.436,7.436,0,0,0,11.7,5.852c.171-.114.323-.256.484-.386l-.062-.12h-4.657v-1.854h.661c1.745,0,3.49-.014,5.234.01a.717.717,0,0,0,.764-.484,7.7,7.7,0,0,0,.736-3.264c0-1.388-.01-2.777.01-4.165.006-.384-.125-.519-.5-.555a10.8,10.8,0,0,1-4.559-1.488c-.832-.5-1.6-1.1-2.448-1.684A12.22,12.22,0,0,1,7522.257,426.152Zm-17.549,9.773a4.645,4.645,0,0,0-.451,7.039c.313.323.635.638.954.956q5.751,5.749,11.5,11.5a4.659,4.659,0,0,0,7.05-.338l-4.235-4.253a2.8,2.8,0,0,1-4.116-.291c-2.1-2.1-4.206-4.178-6.276-6.3a3.884,3.884,0,0,1-.868-1.408,2.656,2.656,0,0,1,.65-2.661Zm20.638,17.776,1.067-1.008-4.234-4.274-1.114,1.011Zm-19.217-19.206,4.164,4.193.907-.858-4.214-4.225Zm21.014,5.283,2.561,2.569,2.593-2.591A9.469,9.469,0,0,1,7527.143,439.778Zm12.7-7.576c-.366.2-.863.3-1.026.586a7.836,7.836,0,0,0-.525,1.693C7539.776,434.681,7540.169,434.121,7539.846,432.2Zm-19.468-4.694a1.36,1.36,0,0,0-.882,1.238,1.6,1.6,0,0,0,.882,1.713Zm18.643,3.032a1.808,1.808,0,0,0,.877-1.839,1.685,1.685,0,0,0-.877-1.3Z" transform="translate(-7500.992 -410.348)"/></svg>